<?xml version="1.0" encoding="utf-8"?>
<!-- Generator: Adobe Illustrator 16.0.0, SVG Export Plug-In . SVG Version: 6.00 Build 0)  -->
<!DOCTYPE svg PUBLIC "-//W3C//DTD SVG 1.1//EN" "http://www.w3.org/Graphics/SVG/1.1/DTD/svg11.dtd">
<svg version="1.1" id="Calque_1" xmlns="http://www.w3.org/2000/svg" xmlns:xlink="http://www.w3.org/1999/xlink" x="0px" y="0px"
	 width="8px" height="8px" viewBox="0 0 8 8" enable-background="new 0 0 8 8" xml:space="preserve">
<path fill="#BB4860" d="M2,1C1.45,1,0.96,1.23,0.59,1.59C0.23,1.95,0,2.44,0,3c0,0.55,0.23,1.04,0.59,1.41L4,7.82l3.41-3.41
	C7.77,4.05,8,3.56,8,3c0-0.55-0.23-1.04-0.59-1.41C7.05,1.23,6.561,1,6,1C5.45,1,4.96,1.23,4.59,1.59C4.23,1.95,4,2.44,4,3
	c0-0.55-0.23-1.04-0.59-1.41C3.05,1.23,2.56,1,2,1z"/>
</svg>
