<?xml version="1.0" encoding="utf-8"?>
<!-- Generator: Adobe Illustrator 16.0.0, SVG Export Plug-In . SVG Version: 6.00 Build 0)  -->
<!DOCTYPE svg PUBLIC "-//W3C//DTD SVG 1.1//EN" "http://www.w3.org/Graphics/SVG/1.1/DTD/svg11.dtd">
<svg version="1.1" id="Calque_1" xmlns="http://www.w3.org/2000/svg" xmlns:xlink="http://www.w3.org/1999/xlink" x="0px" y="0px"
	 width="8px" height="8px" viewBox="0 0 8 8" enable-background="new 0 0 8 8" xml:space="preserve">
<path fill="#FFFFFF" d="M3.5,0C1.57,0,0,1.57,0,3.5C0,5.43,1.57,7,3.5,7c0.59,0,1.17-0.141,1.66-0.41
	c0.039,0.047,0.082,0.091,0.13,0.131l1,1c0.374,0.42,1.019,0.459,1.44,0.084c0.42-0.374,0.459-1.019,0.084-1.439
	C7.788,6.335,7.76,6.307,7.73,6.279l-1-1C6.682,5.231,6.627,5.188,6.57,5.15C6.84,4.66,7.01,4.09,7.01,3.49c0-1.93-1.57-3.5-3.5-3.5
	L3.5,0z M3.5,1C4.891,1,6,2.11,6,3.5c0,0.66-0.24,1.27-0.66,1.721C5.33,5.23,5.32,5.24,5.311,5.25
	C5.263,5.289,5.219,5.333,5.18,5.38C4.74,5.779,4.14,6.01,3.49,6.01c-1.39,0-2.5-1.109-2.5-2.5c0-1.39,1.11-2.5,2.5-2.5L3.5,1z"/>
</svg>
