<?xml version="1.0" encoding="utf-8"?>
<!-- Generator: Adobe Illustrator 16.0.0, SVG Export Plug-In . SVG Version: 6.00 Build 0)  -->
<!DOCTYPE svg PUBLIC "-//W3C//DTD SVG 1.1//EN" "http://www.w3.org/Graphics/SVG/1.1/DTD/svg11.dtd">
<svg version="1.1" id="Calque_1" xmlns="http://www.w3.org/2000/svg" xmlns:xlink="http://www.w3.org/1999/xlink" x="0px" y="0px"
	 width="577.045px" height="527.116px" viewBox="0 0 577.045 527.116" enable-background="new 0 0 577.045 527.116"
	 xml:space="preserve">
<rect x="-171.34" y="-88.713" display="none" fill="none" width="936" height="726"/>
<g>
	<g>
		<path fill="#E5004B" d="M505.041,300.587c0,92.504-74.994,167.5-167.507,167.5c-92.508,0-167.499-74.996-167.499-167.5
			c0-92.513,74.991-167.505,167.499-167.505C430.046,133.083,505.041,208.074,505.041,300.587z"/>
	</g>
	<path fill="#FFFFFF" d="M187.033,203.632c0,28.632-24.018,51.84-53.647,51.84c-29.624,0-53.64-23.208-53.64-51.84
		c0-28.631,24.016-51.843,53.64-51.843C163.015,151.789,187.033,175,187.033,203.632z"/>
	<path fill="#FFFFFF" d="M280.922,101.267c0,21.009-15.22,38.045-33.985,38.045c-18.774,0-33.987-17.036-33.987-38.045
		c0-21.014,15.213-38.042,33.987-38.042C265.703,63.224,280.922,80.253,280.922,101.267z"/>
	<path fill="#004563" d="M574.962,242.76c-3.399-15.941-9.607-30.591-16.266-44.77c-1.678-3.547-3.395-7.06-5.18-10.531
		l-1.332-2.614l-1.397-2.611l-2.735-5.08c-3.862-6.873-7.815-13.69-12.194-20.216c-8.709-13.101-18.653-25.685-31.31-36.149
		c-6.332-5.19-13.379-9.855-21.346-13.125c-3.934-1.723-8.155-2.878-12.428-3.841c-4.314-0.763-8.731-1.253-13.152-1.131
		c-8.839,0.218-17.528,2.361-25.234,5.902c-0.873,0.396-1.733,0.797-2.589,1.213c-6.734,3.297-12.782,7.483-18.352,11.998
		c-12.514,10.253-22.293,22.487-30.896,35.022c-8.575,12.587-15.684,25.764-21.91,39.114c-6.214,13.368-11.533,26.935-16.041,40.64
		c-2.24,6.844-4.279,13.735-6.086,20.672l-1.307,5.212l-1.249,5.486l-0.493,2.542l-0.461,3.116c-0.287,2.158-0.436,4.031-0.53,6.049
		c-0.303,7.001,0.375,13.741,1.608,20.205c-10,0.225-20.01,0.582-30.018,1.224c-4.219,0.28-8.432,0.59-12.652,0.975
		c-1.283-4.426-2.542-8.8-3.803-13.102c-2.282-7.926-4.648-15.606-7.313-22.867c-1.885-5.135-3.931-10.045-6.041-14.733
		c-0.871-1.925-1.749-3.833-2.643-5.674c-6.192-12.656-13.176-23.086-19.379-31.911c-6.031-8.37-11.467-15.233-16.019-20.83
		c0.368-0.408,0.77-0.834,1.236-1.362c1.471-1.606,3.39-3.759,5.638-6.349c2.233-2.57,4.774-5.559,7.474-8.871
		c2.678-3.27,5.517-6.841,8.396-10.621c0.933-0.36,1.909-0.839,2.922-1.432c1.007-0.593,2.029-1.304,3.072-2.091
		c1.022-0.787,2.054-1.658,3.062-2.583c1.015-0.916,1.998-1.893,2.953-2.896c0.612-0.666,1.21-1.324,1.787-2.001
		c0.578-0.669,1.129-1.345,1.655-2.025c0.521-0.68,1.023-1.355,1.479-2.018c0.467-0.666,0.89-1.324,1.274-1.966
		c0.93-1.54,1.704-3.128,2.317-4.702c0.627-1.591,1.103-3.169,1.44-4.716c0.327-1.549,0.506-3.069,0.536-4.511
		c0.039-1.442-0.079-2.809-0.343-4.074c1.688-3.538,3.141-7.057,4.302-10.5c1.151-3.418,2.021-6.782,2.516-10.025
		c0.498-3.246,0.637-6.387,0.349-9.39c-0.292-3.003-1.008-5.874-2.224-8.589c0,0-1.746-3.721-4.738-9.644
		c-0.982-1.962-2.106-4.157-3.346-6.542c-5.021-9.65-11.994-22.394-19.749-34.652c-7.83-12.389-16.504-24.363-24.852-32.207
		c-8.485-7.989-16.603-11.65-23.321-7.371c-0.021,0.018-0.05,0.038-0.08,0.052c-0.021,0.017-0.051,0.031-0.079,0.049
		c-0.02,0.017-0.041,0.031-0.07,0.048s-0.049,0.031-0.084,0.052c0,0-0.014,0.01-0.034,0.024c-0.032,0.024-0.082,0.052-0.139,0.083
		c-0.051,0.035-0.12,0.08-0.204,0.135c-0.085,0.052-0.184,0.114-0.293,0.184c-0.471,0.305-1.162,0.797-2.025,1.494
		c-0.863,0.701-1.895,1.616-3.046,2.771c-1.162,1.162-2.432,2.566-3.761,4.255c-1.351,1.692-2.75,3.665-4.155,5.95
		c-1.607,2.632-3.216,5.663-4.739,9.165c-1.538,3.526-2.991,7.536-4.262,12.046c-1.28,4.56-2.377,9.647-3.21,15.295
		c-0.824,5.705-1.36,11.981-1.533,18.885c0,0-0.011,1.779-0.215,4.612c-0.217,2.843-0.643,6.758-1.491,11.002
		c-0.839,4.279-2.11,8.908-4.006,13.159c-1.916,4.282-4.486,8.19-7.921,10.95c-3.483,2.788-7.984,4.512-12.821,5.527
		c-4.904,1.023-10.148,1.322-15.001,1.256c-4.91-0.062-9.398-0.499-12.675-0.916c-3.298-0.426-5.353-0.839-5.353-0.839
		c-7.844-1.415-15.326-2.333-22.429-2.829c-7.229-0.51-14.074-0.587-20.502-0.333c-6.539,0.26-12.641,0.863-18.314,1.706
		c-5.749,0.857-11.036,1.956-15.858,3.188c-4.589,1.183-8.74,2.486-12.455,3.817c-3.745,1.342-7.026,2.711-9.852,4.002
		c-2.837,1.311-5.197,2.538-7.082,3.592c-1.879,1.054-3.279,1.938-4.187,2.531c-0.203,0.142-0.387,0.264-0.546,0.368
		c-0.146,0.11-0.277,0.193-0.385,0.271c-0.094,0.069-0.144,0.166-0.198,0.208c-0.049,0.045-0.049,0.098-0.049,0.098
		c-0.049,0.034-0.1,0.072-0.144,0.1c-0.054,0.028-0.101,0.059-0.146,0.09c-0.045,0.027-0.098,0.069-0.149,0.097
		c-0.042,0.031-0.09,0.062-0.144,0.091c-12.87,8.207-12.745,21.488-5.418,36.25c7.291,14.691,21.594,30.545,37.163,44.957
		c15.217,14.078,31.499,26.622,43.767,35.514c12.022,8.706,20.341,13.998,20.341,13.998c3.467,2.091,7.403,3.253,11.678,3.603
		c3.407,0.285,7.019,0.047,10.783-0.6c0.92-0.159,1.852-0.343,2.794-0.544c4.706-1.064,9.626-2.735,14.626-4.875
		c4.933-2.12,9.943-4.679,14.94-7.545c1.465,0.359,3.097,0.486,4.839,0.374c1.736-0.086,3.582-0.419,5.487-0.967
		c1.887-0.541,3.846-1.293,5.807-2.261c1.95-0.963,3.9-2.146,5.825-3.523c0.765-0.54,1.527-1.134,2.302-1.761
		c0.779-0.631,1.56-1.297,2.337-2.003c0.79-0.701,1.57-1.426,2.346-2.185c0.766-0.76,1.539-1.544,2.295-2.351
		c1.235-1.307,2.436-2.671,3.578-4.057c1.13-1.374,2.209-2.775,3.19-4.169c0.994-1.386,1.895-2.777,2.676-4.122
		c0.783-1.346,1.452-2.66,1.979-3.916c4.272-3.651,8.222-7.188,11.769-10.461c3.504-3.225,6.62-6.196,9.261-8.766
		c0.609-0.6,1.19-1.176,1.768-1.734c4.486,5.025,9.626,11.138,15.185,18.541c6.211,8.218,12.693,18.098,18.506,29.842
		c0.453,0.895,0.876,1.837,1.313,2.764c5.229,11.121,9.35,24.023,13.181,38.504c0.922,3.582,1.847,7.285,2.777,11.033
		c-12.099,1.53-24.19,3.565-36.185,6.453c-15.418,3.753-30.685,8.895-45.326,15.857c-14.637,6.952-28.501,15.965-40.948,26.689
		c-2.217,1.883-4.352,3.879-6.441,5.897c-3.804,3.684-7.432,7.54-10.886,11.51c-2.658,3.11-5.214,6.29-7.669,9.525l-3.587,4.937
		l-3.58,5.303l-2.885,4.529l-1.715,2.927c-0.515,0.873-1.024,1.771-1.513,2.669c-2.01,3.565-3.875,7.317-5.625,11.164
		c-3.48,7.724-6.292,16.107-7.995,25.27c-1.654,9.144-1.928,19.267,0.175,29.523c2.016,10.249,6.86,20.292,13.282,28.378
		c6.417,8.152,14.29,14.239,22.171,18.815c7.92,4.601,16.067,7.563,24.013,9.753c15.962,4.23,31.426,4.972,46.211,3.894
		c14.784-1.186,28.937-4.213,42.265-8.936c13.34-4.678,25.947-10.85,37.302-18.797c11.313-7.938,21.569-17.542,29.168-29.113
		c0.591-0.885,1.155-1.791,1.716-2.701c6.63-10.841,10.728-23.153,11.611-35.235c1.042-13.112-1.379-25.526-5.209-36.536
		c-0.83-2.396-1.726-4.633-2.646-6.782c-1.266-2.983-2.561-5.767-3.728-8.427c-2.114-4.642-4.038-9.289-5.978-13.853
		c-3.809-9.154-7.256-18.143-10.417-26.935c-1.628-4.665-3.151-9.279-4.605-13.833c3.712-0.697,7.453-1.331,11.205-1.928
		c8.595-1.381,17.284-2.496,26.066-3.315c1.312-0.131,2.635-0.222,3.949-0.347c0.412,1.141,0.818,2.281,1.249,3.405
		c0.564,1.453,1.137,2.892,1.727,4.32c4.694,11.453,10.052,22.099,15.251,32.449c5.866,11.612,11.602,22.848,16.679,34.006
		c3.508,7.667,6.685,15.299,9.466,22.931c4.501,12.353,8.685,28.803,10.696,41.005c6.821-2.516,12.853-4.953,19.199-8.384
		c-1.48-8.021-4.299-20.504-6.729-28.419c-1.287-4.156-2.702-8.279-4.207-12.382c-2.899-7.857-6.158-15.611-9.653-23.301
		c-5.33-11.71-11.21-23.22-17.033-34.745c-4.194-8.356-8.356-16.728-12.059-25.178c-1.069-2.44-2.1-4.883-3.084-7.327
		c21.805-1.27,43.918-1.586,66.15-1.869c1.761-0.011,3.537-0.024,5.299-0.046c13.728-0.106,27.525-0.33,41.381-0.724
		c13.132-0.36,26.333-1.1,39.586-2.833c2.535-0.334,5.068-0.691,7.614-1.106c7.896-1.312,15.833-3.096,23.595-6.1
		c7.695-2.993,15.395-7.367,21.368-14.033c6.03-6.612,9.54-15.437,10.456-23.972C577.65,259.04,576.61,250.724,574.962,242.76z
		 M110.536,194.272c-0.551-1.026-0.89-2.112-1.033-3.213c-0.13-1.107-0.064-2.234,0.173-3.319c0.249-1.099,0.685-2.16,1.282-3.128
		c0.592-0.967,1.352-1.872,2.259-2.635c0.131-0.104,0.265-0.215,0.406-0.326c0.134-0.102,0.281-0.202,0.421-0.309
		c0.155-0.09,0.292-0.198,0.448-0.288c0.147-0.09,0.298-0.18,0.454-0.267c1.224-0.676,2.503-1.089,3.785-1.242
		c1.271-0.17,2.534-0.08,3.723,0.232c1.191,0.302,2.303,0.85,3.269,1.585c0.969,0.742,1.785,1.695,2.408,2.836
		c0.529,1,0.848,2.057,0.987,3.139c0.129,1.075,0.084,2.181-0.153,3.252c-0.224,1.068-0.633,2.107-1.198,3.075
		c-0.577,0.975-1.305,1.87-2.18,2.653c-0.131,0.108-0.263,0.219-0.387,0.325c-0.134,0.105-0.267,0.216-0.408,0.313
		c-0.144,0.099-0.284,0.194-0.426,0.295c-0.154,0.092-0.296,0.182-0.449,0.27c-1.207,0.711-2.479,1.146-3.755,1.335
		c-1.287,0.2-2.57,0.149-3.784-0.139c-1.213-0.295-2.354-0.821-3.359-1.567C112.018,196.398,111.165,195.438,110.536,194.272z
		 M132.924,231.476c-0.226,1.117-0.639,2.199-1.203,3.229c-0.569,1.03-1.297,1.98-2.186,2.833c-0.125,0.115-0.257,0.235-0.392,0.364
		c-0.146,0.115-0.277,0.228-0.419,0.336c-0.146,0.111-0.288,0.228-0.438,0.336c-0.151,0.1-0.305,0.205-0.456,0.309
		c-1.212,0.793-2.499,1.314-3.789,1.584c-1.288,0.264-2.584,0.281-3.807,0.035c-1.233-0.249-2.381-0.735-3.388-1.449
		c-1.016-0.725-1.874-1.688-2.516-2.854c-0.562-1.015-0.893-2.128-1.039-3.259c-0.131-1.13-0.065-2.292,0.181-3.437
		c0.249-1.13,0.681-2.25,1.284-3.283c0.601-1.03,1.366-1.994,2.278-2.819c0.123-0.128,0.27-0.247,0.398-0.357
		c0.137-0.112,0.271-0.23,0.421-0.336c0.142-0.108,0.284-0.209,0.432-0.309c0.153-0.107,0.298-0.202,0.459-0.302
		c1.234-0.763,2.526-1.242,3.813-1.484c1.286-0.233,2.571-0.198,3.766,0.055c1.2,0.263,2.325,0.753,3.296,1.463
		c0.981,0.721,1.812,1.66,2.432,2.812c0.532,0.999,0.864,2.077,1.004,3.173C133.191,229.228,133.155,230.359,132.924,231.476z
		 M140.164,173.724c-0.516-0.988-0.833-2.018-0.976-3.079c-0.133-1.054-0.092-2.125,0.125-3.159
		c0.212-1.023,0.601-2.019,1.145-2.938c0.536-0.912,1.226-1.74,2.062-2.441c0.114-0.1,0.233-0.208,0.364-0.309
		c0.121-0.087,0.247-0.177,0.374-0.267c0.136-0.09,0.27-0.177,0.403-0.267c0.134-0.08,0.274-0.164,0.415-0.24
		c1.122-0.613,2.313-0.981,3.483-1.103c1.172-0.127,2.342-0.021,3.454,0.309c1.092,0.313,2.134,0.842,3.027,1.578
		c0.898,0.732,1.666,1.654,2.254,2.75c0.504,0.954,0.817,1.977,0.962,2.996c0.136,1.022,0.104,2.07-0.09,3.068
		c-0.068,0.354-0.189,0.683-0.288,1.02c-0.203,0.652-0.446,1.283-0.784,1.873c-0.389,0.69-0.887,1.325-1.449,1.907
		c-0.174,0.187-0.336,0.375-0.525,0.547c-0.118,0.104-0.238,0.205-0.366,0.306c-0.122,0.107-0.25,0.197-0.378,0.288
		c-0.13,0.093-0.259,0.187-0.386,0.277c-0.146,0.087-0.279,0.173-0.423,0.264c-1.102,0.646-2.273,1.03-3.459,1.189
		c-1.191,0.159-2.372,0.076-3.494-0.229c-1.13-0.306-2.193-0.829-3.125-1.557C141.559,175.774,140.766,174.848,140.164,173.724z
		 M161.28,209.51c-0.199,1.051-0.558,2.08-1.078,3.033c-0.518,0.964-1.181,1.849-1.986,2.632c-0.114,0.108-0.237,0.219-0.362,0.325
		c-0.124,0.113-0.253,0.216-0.382,0.32c-0.129,0.104-0.259,0.201-0.397,0.291c-0.128,0.097-0.267,0.198-0.413,0.288
		c-1.117,0.721-2.297,1.187-3.478,1.411c-1.19,0.212-2.387,0.198-3.517-0.065c-1.144-0.25-2.209-0.735-3.151-1.443
		c-0.934-0.71-1.742-1.629-2.353-2.761c-0.521-0.977-0.842-2.028-0.99-3.109c-0.134-1.082-0.092-2.185,0.121-3.252
		c0.213-1.065,0.601-2.109,1.143-3.073c0.528-0.97,1.224-1.848,2.058-2.618c0.123-0.108,0.248-0.219,0.376-0.329
		c0.119-0.107,0.249-0.208,0.388-0.316c0.134-0.092,0.272-0.183,0.411-0.284c0.13-0.097,0.279-0.194,0.411-0.27
		c1.142-0.698,2.318-1.134,3.506-1.322c1.179-0.197,2.361-0.138,3.467,0.14c1.106,0.277,2.149,0.78,3.057,1.476
		c0.909,0.714,1.688,1.62,2.268,2.726c0.517,0.964,0.842,1.987,0.983,3.038C161.502,207.387,161.472,208.465,161.28,209.51z
		 M235.121,119.187l-7.572-9.987c-0.188-0.263-0.313-0.485-0.375-0.683c-0.063-0.205-0.05-0.385,0.004-0.548
		c0.059-0.166,0.173-0.323,0.317-0.485c0.152-0.163,0.343-0.33,0.556-0.517c0.011-0.021,0.014-0.021,0.024-0.035
		c0.019-0.003,0.029-0.014,0.033-0.024c0.017-0.01,0.021-0.021,0.036-0.031c0.011-0.011,0.019-0.018,0.04-0.028l8.703-7.698
		l-0.506-0.683l-7.37-9.854c-0.206-0.271-0.371-0.514-0.499-0.735c-0.12-0.215-0.2-0.413-0.219-0.6
		c-0.021-0.187,0.019-0.357,0.12-0.541c0.088-0.177,0.252-0.354,0.485-0.558l8.252-6.966c0.222-0.188,0.481-0.354,0.75-0.485
		c0.263-0.139,0.546-0.233,0.823-0.26c0.277-0.045,0.544-0.018,0.802,0.083c0.259,0.093,0.488,0.274,0.695,0.541l7.652,10.375
		l7.455-6.581c0.008,0,0.019-0.011,0.028-0.018c0.014-0.018,0.021-0.021,0.03-0.035c0.008-0.007,0.024-0.01,0.036-0.031
		c0.004-0.003,0.022-0.017,0.022-0.017c0.208-0.184,0.432-0.375,0.646-0.537c0.223-0.167,0.453-0.306,0.666-0.396
		c0.228-0.087,0.444-0.118,0.653-0.066c0.209,0.053,0.413,0.191,0.596,0.438l4.1,5.625l2.869,3.932
		c0.187,0.264,0.337,0.61,0.416,0.992c0.1,0.378,0.128,0.791,0.122,1.189c-0.009,0.41-0.066,0.805-0.179,1.151
		c-0.108,0.347-0.262,0.628-0.469,0.822l-7.255,6.723l6.648,9.019c0.198,0.264,0.288,0.521,0.292,0.77
		c0.011,0.26-0.065,0.507-0.182,0.746c-0.122,0.239-0.298,0.464-0.477,0.683c-0.198,0.226-0.412,0.437-0.625,0.645l-7.682,7.376
		c-0.216,0.208-0.387,0.367-0.538,0.471c-0.149,0.104-0.268,0.152-0.392,0.149c-0.123-0.01-0.236-0.086-0.38-0.208
		c-0.143-0.136-0.301-0.333-0.498-0.597l-6.853-9.161l-8.49,7.854c-0.229,0.21-0.495,0.309-0.783,0.318
		c-0.288,0.011-0.602-0.063-0.903-0.198c-0.303-0.138-0.616-0.343-0.891-0.575C235.58,119.721,235.329,119.454,235.121,119.187z
		 M302.414,387.084c0.919,2.486,1.847,4.913,2.685,7.255c0.839,2.365,1.589,4.653,2.184,6.879
		c2.569,9.188,3.354,18.819,1.578,27.886c-1.747,9.065-6.055,17.483-12.545,24.523c-3.29,3.623-7.075,6.882-11.244,9.795
		c-12.247,8.562-27.823,14.154-43.965,17.081c-10.892,1.918-22.161,2.729-33.308,2.316c-11.104-0.43-22.181-2.046-31.896-5.218
		c-9.746-3.083-17.765-7.979-21.895-13.182c-2.118-2.623-3.424-5.309-4.258-8.626c-0.843-3.309-1.002-7.365-0.397-12.039
		c0.576-4.671,1.957-9.827,3.94-15.167c0.992-2.674,2.094-5.39,3.39-8.118c0.303-0.682,0.629-1.38,0.978-2.061l0.499-1.022
		l0.255-0.51c0.011-0.037,0.336-0.648,0.089-0.217l2.502-4.744l2.108-3.801l2.396-4.019c1.667-2.64,3.405-5.237,5.221-7.803
		c0.357-0.496,0.74-0.991,1.103-1.484c3.363-4.56,7.056-8.908,10.931-13.134c17.273-18.745,40.7-33.179,67.223-43.037
		c10.873-4.053,22.252-7.389,33.918-10.079c1.368,5.101,2.801,10.289,4.38,15.563c2.651,9.223,5.603,18.687,8.915,28.343
		C298.88,377.267,300.564,382.189,302.414,387.084z M565.792,266.425c-0.693,6.855-3.148,13.139-7.53,18.1
		c-4.439,4.925-10.577,8.537-17.31,11.117c-6.735,2.58-14.03,4.227-21.444,5.435c-1.283,0.19-2.573,0.343-3.853,0.499
		c-27.627,3.474-56.237,2.066-84.611,0.916c-1.145-0.054-2.295-0.09-3.442-0.143c-24.087-1.141-48.23-2.271-72.423-2.511
		c-1.53-6.48-2.358-12.931-2.058-19.231c0.063-1.399,0.181-2.945,0.354-4.209l0.271-1.967l0.492-2.537l1.061-4.589l1.229-4.861
		c1.685-6.47,3.603-12.958,5.728-19.41c8.523-25.817,20.126-51.491,35.32-74.813c7.656-11.561,16.443-22.459,26.569-31.305
		c7.139-6.228,15.143-11.193,23.564-13.845c3.487-1.109,7.039-1.828,10.645-2.061c12.283-0.932,24.964,4.279,35.994,12.706
		c11.12,8.416,20.84,19.54,29.508,31.527c4.394,5.992,8.393,12.278,12.325,18.624l2.925,4.958l1.415,2.404l1.401,2.469
		c1.879,3.275,3.684,6.592,5.444,9.944c6.963,13.357,13.107,27.273,16.612,41.555C565.578,252.323,566.486,259.567,565.792,266.425z
		"/>
</g>
</svg>
